<svg id="Capa_1" data-name="Capa 1" xmlns="http://www.w3.org/2000/svg" viewBox="0 0 586.73 171.35"><defs><style>.cls-1{fill:#0778b0;}.cls-2{fill:#cc152b;}.cls-3{fill:#be1622;}.cls-4{fill:#009fe3;}</style></defs><title>Horizontal_marca_Versiones</title><path class="cls-1" d="M188.64,73.82v3.35h11.5V88.48h-11.5v38h-17v-38h-7V77.17h7V72.38c0-11.41,8.62-17.83,19.93-17.73a30.89,30.89,0,0,1,14.76,3.64l-6,12.08a10.62,10.62,0,0,0-5.94-2.11c-3.35,0-5.84,1.82-5.84,5.56"/><path class="cls-1" d="M261.38,100.55c0,16-11.31,26.55-28.37,26.55s-28.27-10.54-28.27-26.55S216,74.1,233,74.1s28.37,10.55,28.37,26.45m-39.49.19c0,7.77,4.51,12.94,11.12,12.94s11.21-5.17,11.21-12.94S239.72,87.9,233,87.9s-11.12,5.18-11.12,12.84"/><path class="cls-1" d="M326.45,100.55c0,16-11.31,26.55-28.37,26.55s-28.27-10.54-28.27-26.55S281,74.1,298.08,74.1s28.37,10.55,28.37,26.45m-39.48.19c0,7.77,4.5,12.94,11.11,12.94s11.21-5.17,11.21-12.94-4.5-12.84-11.21-12.84S287,93.08,287,100.74"/><path class="cls-1" d="M372.83,123.84a28.56,28.56,0,0,1-14,3.45c-10.06.1-17.34-5.85-17.34-16.58V88.48h-7.19V77.17h7.19V62.8h17V77.17h13.41V88.48H358.46V108c0,3.83,1.72,5.56,4.69,5.46a17.94,17.94,0,0,0,6.42-1.72Z"/><path class="cls-2" d="M401,83.71c-4.33,0-7.5,1.45-7.5,5.1,0,9.43,27.22,4.33,27.12,22.9,0,10.49-9.33,15.2-19.62,15.2a33.77,33.77,0,0,1-17.23-4.62,4.46,4.46,0,0,1-1.71-5.8h0a4.41,4.41,0,0,1,6.07-1.93,28.58,28.58,0,0,0,13.35,3.69c4.71,0,8.37-1.63,8.37-5.48,0-10.49-26.94-4.62-26.84-23.09,0-10.39,9-14.82,18.86-14.82a34.42,34.42,0,0,1,13.92,3,4.42,4.42,0,0,1,2.12,6l-.19.38A4.41,4.41,0,0,1,412,86.3a28.49,28.49,0,0,0-11-2.59"/><path class="cls-2" d="M481.33,94.68v27.94a3.9,3.9,0,0,1-3.9,3.9h-3.26a3.9,3.9,0,0,1-3.9-3.9V97.76c0-7.7-4.62-12.41-12.31-12.41-9.14.09-14.63,6.93-14.63,16v21.3a3.9,3.9,0,0,1-3.9,3.9h-3.26a3.9,3.9,0,0,1-3.9-3.9V59.05a3.91,3.91,0,0,1,3.9-3.91h3.26a3.91,3.91,0,0,1,3.9,3.91v17c0,3.11,3.47,4,6.05,2.26,3.46-2.33,7.81-3.4,12.9-3.4,11.93,0,19.05,7.5,19.05,19.72"/><path class="cls-2" d="M544.73,100.84c0,15.49-10.87,26.07-26.64,26.07s-26.75-10.58-26.75-26.07S502.21,75,518.09,75s26.64,10.49,26.64,25.88m-42.32.19c0,9.91,6.44,16.64,15.68,16.64s15.58-6.73,15.58-16.64-6.44-16.64-15.58-16.64S502.41,91.22,502.41,101"/><path class="cls-2" d="M584.29,120.36a3.63,3.63,0,0,1-1.95,4.42,23.24,23.24,0,0,1-9.7,2.23c-7.7,0-14.34-4.43-14.34-14.92V89.15c0-2-.61-3.61-2.6-3.61h-1a3.6,3.6,0,0,1-3.61-3.61V80.88a3.6,3.6,0,0,1,3.61-3.61h1c2,0,2.6-1.62,2.6-3.61V66.83a3.61,3.61,0,0,1,3.61-3.61h3.75a3.61,3.61,0,0,1,3.61,3.61v6.83c0,2-.38,3.61,1.61,3.61h9.89a3.61,3.61,0,0,1,3.61,3.61v1.05a3.61,3.61,0,0,1-3.61,3.61h-8.89c-2,0-2.61,1.62-2.61,3.61v20.92c0,5.29,2,6.93,5.49,6.93a13.37,13.37,0,0,0,4.3-.79,3.61,3.61,0,0,1,4.61,2.27Z"/><path class="cls-3" d="M80.81,125.93S46.2,101.19,57.52,87.46s23.29-1.8,23.29-1.8,12.78-11.72,23.5,2.2-23.5,38.07-23.5,38.07"/><path class="cls-4" d="M49.9,83.83c8.68-10.52,17.65-9.74,23.7-7.17,6.12-6.76,8-12.37,8-12.37s6.86-21-14.42-29c-20.35-7.68-36.88,4.06-38.25,5.08l-.2.13c-1.27.62-13.31,6.93-16.25,21.43-3.13,15.46,10.78,38,17.66,50.18S34,134,38.35,151.3s17.16,16.88,17.16,16.88c4.86.48,9.44-1.66,13-5.08,3.7-3.57,8.55-12.4,7.88-21-.38-5-3-10.73-5.09-14.67C58.65,116.53,39.37,96.61,49.9,83.83"/><path class="cls-4" d="M77,32.68c6.22,1,12.39-4.74,13.77-12.93S88.25,4.07,82,3,69.62,7.76,68.25,16,70.8,31.63,77,32.68"/><path class="cls-4" d="M54.94,27.57c5.08.37,9.6-4.74,10.09-11.42S61.81,3.74,56.72,3.37,47.12,8.1,46.63,14.79s3.22,12.4,8.31,12.78"/><path class="cls-4" d="M38.5,31.11c4.41-1.11,6.8-6.71,5.35-12.5S37.64,9,33.23,10.11s-6.81,6.71-5.35,12.5,6.21,9.61,10.62,8.5"/><path class="cls-4" d="M24,38.86c3.38-1.74,4.26-6.76,2-11.2S19.06,21,15.68,22.77s-4.26,6.76-2,11.2S20.6,40.6,24,38.86"/><path class="cls-4" d="M14.2,39.06c-2.13-4.13-6.4-6.16-9.54-4.54s-4,6.27-1.83,10.4,6.4,6.16,9.54,4.54,4-6.28,1.83-10.4"/><path class="cls-1" d="M130,60.42c2.21,1.37,5.45.13,7.25-2.77s1.47-6.35-.73-7.72-5.45-.13-7.25,2.77-1.47,6.35.73,7.72"/><path class="cls-1" d="M126.67,61.24a.47.47,0,0,1-.12-.09c-.88-.77-11.48-9.65-25.74-5.54-14.9,4.3-11.38,19-11.38,19A16.53,16.53,0,0,0,90,76.3c6.19-2,14.64-1.88,22.3,8.07,10.52,13.67-11.41,34.72-23.74,44.89A20.45,20.45,0,0,0,93,142.46a11.27,11.27,0,0,0,8.55,4.16s8.65,1,12.58-10.54,2.39-18.31,7.73-26.23,16-22.47,14.73-33.15a21.8,21.8,0,0,0-9.88-15.46"/><path class="cls-1" d="M85.59,43.79c.49,5.65,4.37,9.92,8.66,9.54s7.37-5.25,6.88-10.89-4.37-9.92-8.66-9.54-7.38,5.25-6.88,10.89"/><path class="cls-1" d="M109.54,51.06c3.48,0,6.32-3.67,6.35-8.24s-2.77-8.29-6.25-8.31-6.31,3.66-6.34,8.23,2.77,8.29,6.24,8.32"/><path class="cls-1" d="M120.53,54.36c2.93,1,6.37-1.34,7.68-5.2s0-7.8-3-8.79-6.37,1.33-7.68,5.2,0,7.8,3,8.79"/><path class="cls-1" d="M143.35,58.51c-2-1.27-5.06-.12-6.73,2.57s-1.37,5.9.67,7.18,5.06.12,6.73-2.57,1.37-5.9-.67-7.18"/></svg>